<?xml version="1.0" encoding="iso-8859-1"?>
<!-- Generator: Adobe Illustrator 19.0.0, SVG Export Plug-In . SVG Version: 6.00 Build 0)  -->
<svg version="1.1" id="Capa_1" xmlns="http://www.w3.org/2000/svg" xmlns:xlink="http://www.w3.org/1999/xlink" x="0px" y="0px"
	 viewBox="0 0 512 512" style="enable-background:new 0 0 512 512;" xml:space="preserve">
<circle style="fill:#00E890;" cx="256" cy="256" r="256"/>
<path style="fill:#00935C;" d="M169.069,421.667l90.274,90.291C399.185,510.165,512,396.267,512,256
	c0-8.111-0.395-16.13-1.133-24.048L369.249,90.333L169.069,421.667z"/>
<polygon style="fill:#E5E5E5;" points="142.751,90.333 142.751,394.294 169.029,421.667 342.971,421.667 369.249,394.294 
	369.249,90.333 "/>
<polygon style="fill:#CFCFCF;" points="256,90.333 256,421.667 342.971,421.667 369.249,394.294 369.249,90.333 "/>
<path style="fill:#0773A4;" d="M324.271,200.778H187.729v-74.955h136.542V200.778z"/>
<rect id="SVGCleanerId_0" x="188.27" y="237.88" style="fill:#A2A2A2;" width="19.414" height="19.414"/>
<g>
	<rect x="188.27" y="276.56" style="fill:#A2A2A2;" width="19.414" height="19.414"/>
	<rect x="226.95" y="237.88" style="fill:#A2A2A2;" width="19.414" height="19.414"/>
	<rect x="226.95" y="276.56" style="fill:#A2A2A2;" width="19.414" height="19.414"/>
</g>
<rect x="265.63" y="237.88" style="fill:#FF851F;" width="19.414" height="19.414"/>
<rect x="265.63" y="276.56" style="fill:#A2A2A2;" width="19.414" height="19.414"/>
<rect x="304.32" y="237.88" style="fill:#054D6E;" width="19.414" height="19.414"/>
<g>
	<rect id="SVGCleanerId_0_1_" x="188.27" y="237.88" style="fill:#A2A2A2;" width="19.414" height="19.414"/>
</g>
<g>
	<rect x="188.27" y="315.25" style="fill:#A2A2A2;" width="19.414" height="19.414"/>
	<rect x="188.27" y="353.93" style="fill:#A2A2A2;" width="19.414" height="19.414"/>
</g>
<rect x="304.32" y="276.56" style="fill:#00C47A;" width="19.414" height="19.414"/>
<g>
	<rect x="226.95" y="315.25" style="fill:#A2A2A2;" width="19.414" height="19.414"/>
	<rect x="265.63" y="315.25" style="fill:#A2A2A2;" width="19.414" height="19.414"/>
	<rect x="226.95" y="353.93" style="fill:#A2A2A2;" width="19.414" height="19.414"/>
	<rect x="265.63" y="353.93" style="fill:#A2A2A2;" width="19.414" height="19.414"/>
</g>
<rect x="304.32" y="315.25" style="fill:#0999DB;" width="19.414" height="58.1"/>
<rect x="256" y="125.82" style="fill:#054D6E;" width="68.27" height="74.955"/>
<rect x="142.75" y="188.25" style="fill:#CFCFCF;" width="226.5" height="19.414"/>
<rect x="256" y="188.25" style="fill:#A2A2A2;" width="113.25" height="19.414"/>
<g>
</g>
<g>
</g>
<g>
</g>
<g>
</g>
<g>
</g>
<g>
</g>
<g>
</g>
<g>
</g>
<g>
</g>
<g>
</g>
<g>
</g>
<g>
</g>
<g>
</g>
<g>
</g>
<g>
</g>
</svg>
